<svg width="1200" height="630" viewBox="0 0 1200 630" fill="none" xmlns="http://www.w3.org/2000/svg">
<rect width="1200" height="630" fill="url(#paint0_linear_3478_797)"/>
<g clip-path="url(#clip0_3478_797)">
<mask id="mask0_3478_797" style="mask-type:luminance" maskUnits="userSpaceOnUse" x="36" y="576" width="32" height="32">
<path d="M68 576H36V608H68V576Z" fill="white"/>
</mask>
<g mask="url(#mask0_3478_797)">
<path d="M49.5313 599.128C45.4062 598.618 42.5 595.587 42.5 591.663C42.5 590.068 43.0625 588.346 44 587.197C43.5938 586.145 43.6563 583.911 44.125 582.986C45.375 582.827 47.0625 583.497 48.0625 584.422C49.25 584.039 50.5 583.848 52.0312 583.848C53.5625 583.848 54.8125 584.039 55.9375 584.39C56.9063 583.497 58.625 582.827 59.875 582.986C60.3125 583.848 60.375 586.081 59.9687 587.165C60.9687 588.378 61.5 590.005 61.5 591.663C61.5 595.587 58.5938 598.554 54.4062 599.096C55.4687 599.798 56.1875 601.329 56.1875 603.084V606.402C56.1875 607.359 56.9688 607.901 57.9063 607.518C63.5625 605.317 68 599.543 68 592.397C68 583.369 60.8125 576 51.9688 576C43.125 576 36 583.369 36 592.397C36 599.479 40.4062 605.349 46.3437 607.55C47.1875 607.869 48 607.295 48 606.434V603.881C47.5625 604.073 47 604.201 46.5 604.201C44.4375 604.201 43.2187 603.052 42.3437 600.915C42 600.053 41.625 599.543 40.9063 599.447C40.5313 599.415 40.4062 599.256 40.4062 599.064C40.4062 598.682 41.0312 598.395 41.6563 598.395C42.5625 598.395 43.3437 598.969 44.1562 600.149C44.7813 601.074 45.4375 601.489 46.2187 601.489C47 601.489 47.5 601.202 48.2187 600.468C48.75 599.926 49.1562 599.447 49.5313 599.128Z" fill="white" fill-opacity="0.5"/>
</g>
</g>
<path fill-rule="evenodd" clip-rule="evenodd" d="M1124 38C1140.72 38 1149.08 37.9996 1154.92 42.278C1156.76 43.6218 1158.38 45.2404 1159.72 47.0766C1164 52.9233 1164 61.2825 1164 78C1164 94.7175 1164 103.077 1159.72 108.923C1158.38 110.76 1156.76 112.378 1154.92 113.722C1149.08 118 1140.72 118 1124 118C1107.28 118 1098.92 118 1093.08 113.722C1091.24 112.378 1089.62 110.76 1088.28 108.923C1084 103.077 1084 94.7175 1084 78C1084 61.2825 1084 52.9233 1088.28 47.0766C1089.62 45.2404 1091.24 43.6218 1093.08 42.278C1098.92 37.9996 1107.28 38 1124 38ZM1122.99 51.1382C1121.08 50.7792 1118.42 50.7343 1115 51.0036V56.1881C1117.44 55.6494 1119.24 55.514 1120.39 55.7833C1121.59 56.0527 1122.35 56.6813 1122.66 57.6687C1123.01 58.6562 1123.1 59.9133 1122.92 61.4394C1122.74 62.9206 1122.54 64.6261 1122.32 66.5561C1122.01 68.7106 1121.9 70.5514 1121.99 72.0776C1122.12 73.6035 1122.66 74.838 1123.59 75.7805C1124.56 76.7231 1126.1 77.4413 1128.18 77.9351C1126.1 78.3839 1124.56 79.0793 1123.59 80.0218C1122.66 80.9644 1122.12 82.1988 1121.99 83.7248C1121.86 85.2059 1121.97 87.0241 1122.32 89.1785C1122.54 91.1086 1122.74 92.8149 1122.92 94.2961C1123.1 95.8219 1123.01 97.0785 1122.66 98.0659C1122.35 99.0533 1121.59 99.6819 1120.39 99.9512C1119.24 100.265 1117.44 100.153 1115 99.6143V104.799C1118.42 105.068 1121.1 105.023 1123.05 104.664C1125.01 104.305 1126.38 103.52 1127.18 102.308C1128.03 101.141 1128.45 99.4577 1128.45 97.2583C1128.45 95.1038 1128.2 92.3654 1127.72 89.0439C1127.45 86.9346 1127.45 85.2965 1127.72 84.1295C1127.98 82.9627 1128.38 82.1318 1128.91 81.638C1129.49 81.1444 1130.09 80.8525 1130.71 80.7626C1131.38 80.628 1131.96 80.5602 1132.44 80.5602V75.1075C1131.96 75.1075 1131.38 75.0617 1130.71 74.972C1130.09 74.8372 1129.49 74.5462 1128.91 74.0975C1128.38 73.6038 1127.98 72.773 1127.72 71.606C1127.45 70.439 1127.45 68.8003 1127.72 66.6907C1128.16 63.3694 1128.38 60.6316 1128.38 58.4772C1128.38 56.3227 1127.96 54.6612 1127.12 53.4942C1126.32 52.2825 1124.94 51.4972 1122.99 51.1382ZM1101.57 68.9159L1102.55 75.3795L1096.4 72.471L1094.57 77.6442L1101.37 78.7549L1096.52 83.3539L1101.22 86.557L1104.44 80.852L1107.67 86.557L1112.37 83.3567L1107.57 78.7568L1114.38 77.6442L1112.54 72.471L1106.39 75.3795L1107.37 68.9159H1101.57ZM1147.81 70.227C1145.16 70.227 1143.35 70.9584 1142.37 72.4211C1141.4 73.7926 1140.91 75.4389 1140.91 77.359C1140.91 79.3705 1141.36 81.1079 1142.24 82.5708C1143.21 84.0336 1145.07 84.7649 1147.81 84.7649C1150.38 84.7649 1152.1 84.0794 1152.99 82.7082C1153.96 81.2453 1154.45 79.4619 1154.45 77.359C1154.45 75.4389 1153.96 73.7926 1152.99 72.4211C1152.1 70.9584 1150.38 70.227 1147.81 70.227Z" fill="white"/>
<text fill="white" style="white-space: pre" xml:space="preserve" font-family="Arial" font-size="66" font-weight="bold" letter-spacing="-0.03em"><tspan x="36" y="214.881">Weekly AI-context hygiene research</tspan></text>
<text fill="white" style="white-space: pre" xml:space="preserve" font-family="Arial" font-size="60" font-weight="bold" letter-spacing="0em"><tspan x="36" y="361.301">{SCANNED}</tspan></text>
<text fill="white" style="white-space: pre" xml:space="preserve" font-family="Arial" font-size="60" font-weight="bold" letter-spacing="0em"><tspan x="547" y="361.301">{SIGNALS}</tspan></text>
<text fill="white" style="white-space: pre" xml:space="preserve" font-family="Arial" font-size="60" font-weight="bold" letter-spacing="0em"><tspan x="547" y="506.301">{AI_IGNORE}</tspan></text>
<text fill="white" style="white-space: pre" xml:space="preserve" font-family="Arial" font-size="60" font-weight="bold" letter-spacing="0em"><tspan x="36" y="506.301">{REPOS_AFFECTED}</tspan></text>
<text fill="white" style="white-space: pre" xml:space="preserve" font-family="Arial" font-size="26" letter-spacing="-0.04em"><tspan x="36" y="296.014">Scanned repos</tspan></text>
<text fill="white" style="white-space: pre" xml:space="preserve" font-family="Arial" font-size="26" letter-spacing="-0.04em"><tspan x="547" y="441.014">Dedicated Al ignore</tspan></text>
<text fill="white" style="white-space: pre" xml:space="preserve" font-family="Arial" font-size="26" letter-spacing="0em"><tspan x="36" y="441.014">Repos with risk signals</tspan></text>
<text fill="white" fill-opacity="0.5" style="white-space: pre" xml:space="preserve" font-family="Arial" font-size="26" letter-spacing="-0.03em"><tspan x="80" y="599.014">github.com/Offsend/radar</tspan></text>
<text fill="white" fill-opacity="0.5" style="white-space: pre" xml:space="preserve" font-family="Arial" font-size="26" letter-spacing="-0.03em"><tspan x="1058.62" y="599.014">offsend.io</tspan></text>
<text fill="white" style="white-space: pre" xml:space="preserve" font-family="Arial" font-size="26" letter-spacing="-0.04em"><tspan x="547" y="296.014">Al-context risk signals</tspan></text>
<text fill="white" style="white-space: pre" xml:space="preserve" font-family="Arial" font-size="46" font-weight="bold" letter-spacing="-0.03em"><tspan x="36" y="78.4473">{REPORT_LABEL}</tspan></text>
<text fill="white" fill-opacity="0.6" style="white-space: pre" xml:space="preserve" font-family="Arial" font-size="21" font-weight="bold" letter-spacing="0em"><tspan x="36" y="119.28">{DATE_RANGE}</tspan></text>
<defs>
<linearGradient id="paint0_linear_3478_797" x1="207.477" y1="667.14" x2="452.406" y2="353.581" gradientUnits="userSpaceOnUse">
<stop offset="0.600962" stop-color="#2C56CC"/>
<stop offset="0.9997" stop-color="#FF4E4E"/>
<stop offset="0.9998" stop-color="#2C56CC"/>
</linearGradient>
<clipPath id="clip0_3478_797">
<rect width="32" height="32" fill="white" transform="translate(36 576)"/>
</clipPath>
</defs>
</svg>
