<svg width="83" height="83" viewBox="0 0 83 83" fill="none" xmlns="http://www.w3.org/2000/svg">
<g clip-path="url(#clip0_3458_769)">
<rect x="9" y="12" width="67" height="64" fill="white"/>
<path fill-rule="evenodd" clip-rule="evenodd" d="M41.5 0C58.8444 0 67.5171 -0.000407219 73.583 4.43848C75.4881 5.83261 77.1674 7.51187 78.5615 9.41699C83.0004 15.4829 83 24.1556 83 41.5C83 58.8444 83.0004 67.5171 78.5615 73.583C77.1674 75.4881 75.4881 77.1674 73.583 78.5615C67.5171 83.0004 58.8444 83 41.5 83C24.1556 83 15.4829 83.0004 9.41699 78.5615C7.51187 77.1674 5.83261 75.4881 4.43848 73.583C-0.000407219 67.5171 0 58.8444 0 41.5C0 24.1556 -0.000407219 15.4829 4.43848 9.41699C5.83261 7.51187 7.51187 5.83261 9.41699 4.43848C15.4829 -0.000407219 24.1556 0 41.5 0ZM40.4502 13.6309C38.4698 13.2584 35.7062 13.2118 32.1602 13.4912V18.8701C34.6932 18.3113 36.5594 18.1708 37.7568 18.4502C39.0001 18.7296 39.7831 19.3819 40.1055 20.4062C40.4739 21.4308 40.5661 22.735 40.3818 24.3184C40.1976 25.8551 39.99 27.6246 39.7598 29.627C39.4374 31.8623 39.3219 33.7721 39.4141 35.3555C39.5523 36.9387 40.1052 38.2194 41.0723 39.1973C42.0855 40.1752 43.6744 40.9204 45.8389 41.4326C43.6744 41.8983 42.0854 42.6198 41.0723 43.5977C40.1052 44.5755 39.5523 45.8563 39.4141 47.4395C39.2759 48.9762 39.3914 50.8625 39.7598 53.0977C39.99 55.1001 40.1976 56.8704 40.3818 58.4072C40.566 59.9902 40.4738 61.294 40.1055 62.3184C39.7831 63.3427 39.0001 63.9949 37.7568 64.2744C36.5594 64.6004 34.6932 64.4836 32.1602 63.9248V69.3037C35.7064 69.5831 38.4931 69.5366 40.5195 69.1641C42.5458 68.7915 43.9737 67.9769 44.8027 66.7197C45.6778 65.5089 46.1152 63.7623 46.1152 61.4805C46.1152 59.2452 45.8621 56.4041 45.3555 52.958C45.0792 50.7696 45.0792 49.0701 45.3555 47.8594C45.6318 46.6488 46.0461 45.7867 46.5986 45.2744C47.1972 44.7623 47.8193 44.4594 48.4639 44.3662C49.1547 44.2265 49.7541 44.1562 50.2607 44.1562V38.499C49.7541 38.499 49.1547 38.4515 48.4639 38.3584C47.8193 38.2186 47.1972 37.9167 46.5986 37.4512C46.046 36.9389 45.6318 36.077 45.3555 34.8662C45.0791 33.6554 45.0791 31.9553 45.3555 29.7666C45.816 26.3208 46.0468 23.4803 46.0469 21.2451C46.0469 19.0098 45.6085 17.286 44.7334 16.0752C43.9044 14.8181 42.4764 14.0034 40.4502 13.6309ZM18.2285 32.0752L19.25 38.7812L12.8701 35.7637L10.9619 41.1309L18.0176 42.2832L12.9844 47.0547L17.8662 50.3779L21.209 44.459L24.5527 50.3779L29.4297 47.0576L24.4502 42.2852L31.5146 41.1309L29.6064 35.7637L23.2266 38.7812L24.248 32.0752H18.2285ZM66.2061 33.4355C63.4527 33.4355 61.5712 34.1943 60.5615 35.7119C59.5519 37.1349 59.0469 38.8428 59.0469 40.835C59.0469 42.9219 59.506 44.7244 60.4238 46.2422C61.4335 47.7599 63.3609 48.5186 66.2061 48.5186C68.8675 48.5186 70.6573 47.8074 71.5752 46.3848C72.5848 44.867 73.0898 43.0168 73.0898 40.835C73.0898 38.8428 72.5848 37.1349 71.5752 35.7119C70.6573 34.1943 68.8676 33.4355 66.2061 33.4355Z" fill="black"/>
</g>
<defs>
<clipPath id="clip0_3458_769">
<rect width="83" height="83" fill="white"/>
</clipPath>
</defs>
</svg>
