<svg width="606" height="93" viewBox="0 0 606 93" fill="none" xmlns="http://www.w3.org/2000/svg">
<path d="M131.416 71.648C123.075 71.648 116.696 69.2253 112.28 64.38C107.864 59.4733 105.656 52.88 105.656 44.6C105.656 39.1413 106.607 34.4187 108.508 30.432C110.41 26.384 113.262 23.256 117.064 21.048C120.928 18.7787 125.712 17.644 131.416 17.644C139.819 17.644 146.198 20.0973 150.552 25.004C154.968 29.8493 157.176 36.3813 157.176 44.6C157.176 49.936 156.195 54.6587 154.232 58.768C152.27 62.816 149.387 65.9747 145.584 68.244C141.782 70.5133 137.059 71.648 131.416 71.648ZM131.324 62.632C135.066 62.632 138.163 61.8653 140.616 60.332C143.07 58.7373 144.91 56.5907 146.136 53.892C147.363 51.132 147.976 48.0347 147.976 44.6C147.976 41.104 147.363 38.0067 146.136 35.308C144.91 32.548 143.07 30.4013 140.616 28.868C138.163 27.2733 135.066 26.476 131.324 26.476C125.927 26.476 121.818 28.132 118.996 31.444C116.175 34.756 114.764 39.1413 114.764 44.6C114.764 47.9733 115.347 51.04 116.512 53.8C117.739 56.4987 119.579 58.6453 122.032 60.24C124.486 61.8347 127.583 62.632 131.324 62.632Z" fill="#141B24"/>
<path d="M164.288 70.452V26.384C164.288 23.072 165.024 20.68 166.496 19.208C168.03 17.736 170.299 17 173.304 17H183.24V24.268H173.672V70.452H164.288ZM159.136 39.172V32.548H182.964V39.172H159.136Z" fill="#141B24"/>
<path d="M189.829 70.452V26.384C189.829 23.072 190.565 20.68 192.037 19.208C193.57 17.736 195.84 17 198.845 17H208.781V24.268H199.213V70.452H189.829ZM184.677 39.172V32.548H208.505V39.172H184.677Z" fill="#141B24"/>
<path d="M226.453 71.28C225.165 71.28 223.754 71.096 222.221 70.728C220.688 70.4213 219.154 69.9307 217.621 69.256C216.088 68.52 214.677 67.6 213.389 66.496C212.162 65.392 211.181 64.104 210.445 62.632C209.709 61.16 209.341 59.4427 209.341 57.48H217.989C217.989 57.5413 218.02 57.94 218.081 58.676C218.204 59.412 218.51 60.24 219.001 61.16C219.492 62.0187 220.289 62.7853 221.393 63.46C222.497 64.1347 224.092 64.472 226.177 64.472C227.833 64.472 229.182 64.2573 230.225 63.828C231.268 63.3987 232.034 62.8773 232.525 62.264C233.077 61.5893 233.353 60.8533 233.353 60.056C233.353 58.7067 232.77 57.664 231.605 56.928C230.501 56.1307 229.06 55.4867 227.281 54.996C225.502 54.5053 223.601 54.0147 221.577 53.524C219.614 52.972 217.744 52.2667 215.965 51.408C214.248 50.5493 212.837 49.384 211.733 47.912C210.629 46.3787 210.077 44.416 210.077 42.024C210.077 38.4667 211.488 35.7987 214.309 34.02C217.13 32.2413 220.718 31.352 225.073 31.352C227.404 31.352 229.581 31.628 231.605 32.18C233.69 32.6707 235.53 33.4987 237.125 34.664C238.72 35.768 239.977 37.2093 240.897 38.988C241.878 40.7053 242.369 42.8213 242.369 45.336H233.721C233.782 43.9253 233.537 42.7907 232.985 41.932C232.494 41.012 231.82 40.3067 230.961 39.816C230.102 39.3253 229.182 38.988 228.201 38.804C227.22 38.62 226.269 38.528 225.349 38.528C223.141 38.528 221.454 38.9267 220.289 39.724C219.185 40.46 218.633 41.4413 218.633 42.668C218.633 44.0787 219.185 45.1827 220.289 45.98C221.454 46.716 222.926 47.3293 224.705 47.82C226.545 48.3107 228.477 48.832 230.501 49.384C232.525 49.8747 234.426 50.5493 236.205 51.408C237.984 52.2667 239.425 53.432 240.529 54.904C241.694 56.3147 242.277 58.216 242.277 60.608C242.277 63 241.602 64.9933 240.253 66.588C238.965 68.1213 237.125 69.2867 234.733 70.084C232.402 70.8813 229.642 71.28 226.453 71.28Z" fill="#141B24"/>
<path d="M263.349 71.28C258.994 71.28 255.437 70.36 252.677 68.52C249.978 66.6187 247.954 64.196 246.605 61.252C245.317 58.308 244.642 55.2413 244.581 52.052C244.519 48.2493 245.225 44.876 246.697 41.932C248.23 38.9267 250.377 36.596 253.137 34.94C255.958 33.2227 259.27 32.364 263.073 32.364C266.446 32.364 269.482 33.1 272.181 34.572C274.879 36.044 276.995 38.0987 278.529 40.736C280.123 43.3733 280.951 46.532 281.013 50.212C281.013 50.3347 281.013 50.7027 281.013 51.316C281.013 51.868 281.013 52.2973 281.013 52.604H253.505C253.505 56.1 254.363 58.7987 256.081 60.7C257.859 62.54 260.221 63.46 263.165 63.46C265.495 63.46 267.427 62.8773 268.961 61.712C270.555 60.5467 271.506 59.0133 271.813 57.112H280.921C280.675 59.7493 279.817 62.1413 278.345 64.288C276.873 66.4347 274.879 68.152 272.365 69.44C269.85 70.6667 266.845 71.28 263.349 71.28ZM253.781 48.372H271.629C271.567 47.9427 271.445 47.268 271.261 46.348C271.077 45.428 270.678 44.4773 270.065 43.496C269.451 42.5147 268.562 41.6867 267.397 41.012C266.231 40.3373 264.729 40 262.889 40C261.049 40 259.546 40.3067 258.381 40.92C257.215 41.5333 256.326 42.3 255.713 43.22C255.099 44.14 254.639 45.06 254.333 45.98C254.026 46.9 253.842 47.6973 253.781 48.372Z" fill="#141B24"/>
<path d="M285.421 70.36V32.548H293.425L294.989 40.736H295.173C295.234 40.552 295.449 40.0613 295.817 39.264C296.246 38.4053 296.921 37.4547 297.841 36.412C298.822 35.3693 300.11 34.48 301.705 33.744C303.361 32.9467 305.415 32.548 307.869 32.548C310.567 32.548 312.745 33.008 314.401 33.928C316.118 34.7867 317.467 35.952 318.449 37.424C319.43 38.8347 320.105 40.4293 320.473 42.208C320.902 43.9253 321.147 45.6427 321.209 47.36C321.331 49.0773 321.393 50.6413 321.393 52.052V70.36H312.193V51.96C312.193 49.936 311.978 48.096 311.549 46.44C311.181 44.784 310.414 43.4347 309.249 42.392C308.145 41.3493 306.397 40.828 304.005 40.828C301.551 40.828 299.681 41.4107 298.393 42.576C297.105 43.68 296.215 45.0907 295.725 46.808C295.234 48.5253 294.989 50.3653 294.989 52.328V70.36H285.421Z" fill="#141B24"/>
<path d="M341.616 71.28C337.875 71.28 334.839 70.4827 332.508 68.888C330.239 67.2933 328.583 65.0547 327.54 62.172C326.497 59.2893 325.976 55.9467 325.976 52.144C325.976 48.1573 326.497 44.7227 327.54 41.84C328.644 38.896 330.331 36.6267 332.6 35.032C334.931 33.376 337.936 32.548 341.616 32.548C344.008 32.548 346.001 32.9467 347.596 33.744C349.252 34.48 350.54 35.3693 351.46 36.412C352.441 37.4547 353.147 38.4053 353.576 39.264C354.005 40.1227 354.251 40.644 354.312 40.828H354.496V18.564H364.156V70.36H356.06L354.496 63.644H354.312C354.251 63.7667 353.975 64.2267 353.484 65.024C353.055 65.8213 352.319 66.7107 351.276 67.692C350.295 68.6733 349.007 69.532 347.412 70.268C345.817 70.9427 343.885 71.28 341.616 71.28ZM344.652 63.368C346.983 63.368 348.853 62.8773 350.264 61.896C351.736 60.9147 352.779 59.596 353.392 57.94C354.067 56.2227 354.404 54.26 354.404 52.052C354.404 49.9053 354.097 48.004 353.484 46.348C352.871 44.6307 351.859 43.312 350.448 42.392C349.099 41.4107 347.259 40.92 344.928 40.92C342.413 40.92 340.42 41.4413 338.948 42.484C337.537 43.5267 336.556 44.9067 336.004 46.624C335.452 48.3413 335.176 50.1507 335.176 52.052C335.176 53.9533 335.421 55.7933 335.912 57.572C336.464 59.2893 337.415 60.7 338.764 61.804C340.175 62.8467 342.137 63.368 344.652 63.368Z" fill="#141B24"/>
<path fill-rule="evenodd" clip-rule="evenodd" d="M41.5 3C58.8444 3 67.5171 2.99959 73.583 7.43848C75.4881 8.83261 77.1674 10.5119 78.5615 12.417C83.0004 18.4829 83 27.1556 83 44.5C83 61.8444 83.0004 70.5171 78.5615 76.583C77.1674 78.4881 75.4881 80.1674 73.583 81.5615C67.5171 86.0004 58.8444 86 41.5 86C24.1556 86 15.4829 86.0004 9.41699 81.5615C7.51187 80.1674 5.83261 78.4881 4.43848 76.583C-0.000407219 70.5171 0 61.8444 0 44.5C0 27.1556 -0.000407219 18.4829 4.43848 12.417C5.83261 10.5119 7.51187 8.83261 9.41699 7.43848C15.4829 2.99959 24.1556 3 41.5 3ZM40.4502 16.6309C38.4698 16.2584 35.7062 16.2118 32.1602 16.4912V21.8701C34.6932 21.3113 36.5594 21.1708 37.7568 21.4502C39.0001 21.7296 39.7831 22.3819 40.1055 23.4062C40.4739 24.4308 40.5661 25.735 40.3818 27.3184C40.1976 28.8551 39.99 30.6246 39.7598 32.627C39.4374 34.8623 39.322 36.7721 39.4141 38.3555C39.5523 39.9387 40.1052 41.2194 41.0723 42.1973C42.0855 43.1752 43.6744 43.9204 45.8389 44.4326C43.6744 44.8983 42.0854 45.6198 41.0723 46.5977C40.1052 47.5755 39.5523 48.8563 39.4141 50.4395C39.2759 51.9762 39.3914 53.8625 39.7598 56.0977C39.99 58.1001 40.1976 59.8704 40.3818 61.4072C40.566 62.9902 40.4738 64.294 40.1055 65.3184C39.7831 66.3427 39.0001 66.9949 37.7568 67.2744C36.5594 67.6004 34.6932 67.4836 32.1602 66.9248V72.3037C35.7064 72.5831 38.4931 72.5366 40.5195 72.1641C42.5458 71.7915 43.9737 70.9769 44.8027 69.7197C45.6778 68.5089 46.1152 66.7623 46.1152 64.4805C46.1152 62.2452 45.8621 59.4041 45.3555 55.958C45.0792 53.7696 45.0792 52.0701 45.3555 50.8594C45.6318 49.6488 46.0461 48.7867 46.5986 48.2744C47.1972 47.7623 47.8193 47.4594 48.4639 47.3662C49.1547 47.2265 49.7541 47.1562 50.2607 47.1562V41.499C49.7541 41.499 49.1547 41.4515 48.4639 41.3584C47.8193 41.2186 47.1972 40.9167 46.5986 40.4512C46.046 39.9389 45.6318 39.077 45.3555 37.8662C45.0791 36.6554 45.0791 34.9553 45.3555 32.7666C45.816 29.3208 46.0468 26.4803 46.0469 24.2451C46.0469 22.0098 45.6085 20.286 44.7334 19.0752C43.9044 17.8181 42.4764 17.0034 40.4502 16.6309ZM18.2285 35.0752L19.25 41.7812L12.8701 38.7637L10.9619 44.1309L18.0176 45.2832L12.9844 50.0547L17.8662 53.3779L21.209 47.459L24.5527 53.3779L29.4297 50.0576L24.4502 45.2852L31.5146 44.1309L29.6064 38.7637L23.2266 41.7812L24.248 35.0752H18.2285ZM66.2061 36.4355C63.4527 36.4355 61.5712 37.1943 60.5615 38.7119C59.5519 40.1349 59.0469 41.8428 59.0469 43.835C59.0469 45.9219 59.506 47.7244 60.4238 49.2422C61.4335 50.7599 63.3609 51.5186 66.2061 51.5186C68.8675 51.5186 70.6573 50.8074 71.5752 49.3848C72.5848 47.867 73.0898 46.0168 73.0898 43.835C73.0898 41.8428 72.5848 40.1349 71.5752 38.7119C70.6573 37.1943 68.8676 36.4355 66.2061 36.4355Z" fill="#141B24"/>
<g filter="url(#filter0_di_3473_780)">
<rect x="387" y="3" width="214" height="83" rx="20" fill="url(#paint0_linear_3473_780)"/>
<rect x="387.5" y="3.5" width="213" height="82" rx="19.5" stroke="#2C56CC"/>
</g>
<g filter="url(#filter1_d_3473_780)">
<path d="M412 69.1475V19.4208H428.15C432.057 19.4208 435.249 20.0838 437.726 21.4098C440.203 22.6885 442.037 24.4171 443.229 26.5956C444.42 28.7741 445.015 31.2368 445.015 33.9836C445.015 36.6357 444.396 39.0747 443.157 41.3005C441.966 43.5264 440.108 45.3024 437.583 46.6284C435.058 47.9545 431.819 48.6175 427.864 48.6175H418.003V69.1475H412ZM438.441 69.1475L427.436 46.9126H434.153L445.515 69.1475H438.441ZM418.003 43.929H427.721C431.533 43.929 434.32 43.0055 436.082 41.1585C437.893 39.3115 438.798 36.9435 438.798 34.0546C438.798 31.1184 437.917 28.7978 436.154 27.0929C434.439 25.3406 431.604 24.4645 427.65 24.4645H418.003V43.929Z" fill="white"/>
<path d="M461.242 70C458.336 70 455.907 69.5027 453.953 68.5082C452 67.4663 450.547 66.1166 449.594 64.459C448.641 62.7541 448.165 60.9071 448.165 58.918C448.165 56.5027 448.784 54.4663 450.023 52.8087C451.309 51.1038 453.096 49.8251 455.382 48.9727C457.717 48.0729 460.456 47.623 463.601 47.623H473.105C473.105 45.3971 472.748 43.5501 472.033 42.082C471.366 40.5665 470.366 39.4299 469.032 38.6721C467.745 37.9144 466.125 37.5355 464.172 37.5355C461.885 37.5355 459.908 38.1038 458.241 39.2404C456.574 40.377 455.549 42.0583 455.168 44.2842H449.022C449.308 41.7268 450.166 39.5956 451.595 37.8907C453.072 36.1384 454.93 34.8124 457.169 33.9126C459.408 32.9654 461.743 32.4918 464.172 32.4918C467.507 32.4918 470.27 33.1075 472.462 34.3388C474.701 35.5228 476.368 37.204 477.464 39.3825C478.56 41.5137 479.108 44.0474 479.108 46.9836V69.1475H473.748L473.391 62.8251C472.914 63.8197 472.295 64.7668 471.533 65.6667C470.818 66.5191 469.961 67.2769 468.96 67.9399C467.96 68.5556 466.816 69.0528 465.53 69.4317C464.291 69.8106 462.862 70 461.242 70ZM462.171 64.9563C463.839 64.9563 465.339 64.6248 466.673 63.9617C468.055 63.2514 469.222 62.3042 470.175 61.1202C471.128 59.8889 471.842 58.5392 472.319 57.071C472.843 55.6029 473.105 54.0638 473.105 52.4536V52.2404H464.101C461.766 52.2404 459.885 52.5246 458.455 53.0929C457.026 53.6138 456.002 54.3716 455.382 55.3661C454.763 56.3133 454.453 57.4025 454.453 58.6339C454.453 59.9126 454.739 61.0255 455.311 61.9727C455.93 62.9199 456.812 63.6539 457.955 64.1749C459.146 64.6958 460.552 64.9563 462.171 64.9563Z" fill="white"/>
<path d="M500.685 70C497.207 70 494.158 69.1949 491.538 67.5847C488.918 65.9271 486.893 63.6776 485.464 60.8361C484.034 57.9945 483.32 54.7741 483.32 51.1749C483.32 47.5756 484.034 44.3789 485.464 41.5847C486.893 38.7432 488.918 36.5173 491.538 34.9071C494.206 33.2969 497.279 32.4918 500.756 32.4918C503.71 32.4918 506.283 33.0838 508.474 34.2678C510.713 35.4517 512.428 37.1093 513.619 39.2404V18H519.622V69.1475H514.191L513.691 63.2514C512.929 64.4353 511.952 65.5483 510.761 66.5902C509.57 67.5847 508.141 68.4135 506.473 69.0765C504.806 69.6922 502.876 70 500.685 70ZM501.4 64.8142C503.782 64.8142 505.878 64.2459 507.688 63.1093C509.498 61.9727 510.904 60.4098 511.904 58.4208C512.905 56.3843 513.405 53.9927 513.405 51.2459C513.405 48.5464 512.905 46.1785 511.904 44.1421C510.904 42.1056 509.498 40.5191 507.688 39.3825C505.878 38.2459 503.782 37.6776 501.4 37.6776C499.065 37.6776 496.993 38.2459 495.182 39.3825C493.372 40.5191 491.967 42.1056 490.966 44.1421C489.966 46.1785 489.466 48.5464 489.466 51.2459C489.466 53.9927 489.966 56.3843 490.966 58.4208C491.967 60.4098 493.372 61.9727 495.182 63.1093C496.993 64.2459 499.065 64.8142 501.4 64.8142Z" fill="white"/>
<path d="M537.77 70C534.864 70 532.434 69.5027 530.481 68.5082C528.528 67.4663 527.075 66.1166 526.122 64.459C525.169 62.7541 524.693 60.9071 524.693 58.918C524.693 56.5027 525.312 54.4663 526.551 52.8087C527.837 51.1038 529.623 49.8251 531.91 48.9727C534.244 48.0729 536.984 47.623 540.128 47.623H549.632C549.632 45.3971 549.275 43.5501 548.561 42.082C547.894 40.5665 546.893 39.4299 545.559 38.6721C544.273 37.9144 542.653 37.5355 540.7 37.5355C538.413 37.5355 536.436 38.1038 534.769 39.2404C533.101 40.377 532.077 42.0583 531.696 44.2842H525.55C525.836 41.7268 526.693 39.5956 528.123 37.8907C529.6 36.1384 531.458 34.8124 533.697 33.9126C535.936 32.9654 538.27 32.4918 540.7 32.4918C544.035 32.4918 546.798 33.1075 548.989 34.3388C551.228 35.5228 552.896 37.204 553.992 39.3825C555.087 41.5137 555.635 44.0474 555.635 46.9836V69.1475H550.276L549.918 62.8251C549.442 63.8197 548.823 64.7668 548.06 65.6667C547.346 66.5191 546.488 67.2769 545.488 67.9399C544.487 68.5556 543.344 69.0528 542.058 69.4317C540.819 69.8106 539.39 70 537.77 70ZM538.699 64.9563C540.366 64.9563 541.867 64.6248 543.201 63.9617C544.583 63.2514 545.75 62.3042 546.703 61.1202C547.655 59.8889 548.37 58.5392 548.846 57.071C549.37 55.6029 549.632 54.0638 549.632 52.4536V52.2404H540.628C538.294 52.2404 536.412 52.5246 534.983 53.0929C533.554 53.6138 532.529 54.3716 531.91 55.3661C531.291 56.3133 530.981 57.4025 530.981 58.6339C530.981 59.9126 531.267 61.0255 531.839 61.9727C532.458 62.9199 533.339 63.6539 534.483 64.1749C535.674 64.6958 537.079 64.9563 538.699 64.9563Z" fill="white"/>
<path d="M561.348 69.1475V33.3443H566.779L567.208 40.1639C568.018 38.5537 569.042 37.1803 570.281 36.0437C571.567 34.9071 573.092 34.031 574.854 33.4153C576.665 32.7996 578.713 32.4918 581 32.4918V38.7432H578.785C577.26 38.7432 575.807 38.9563 574.426 39.3825C573.044 39.7614 571.805 40.4007 570.71 41.3005C569.661 42.2004 568.828 43.4317 568.208 44.9945C567.637 46.51 567.351 48.4044 567.351 50.6776V69.1475H561.348Z" fill="white"/>
</g>
<defs>
<filter id="filter0_di_3473_780" x="382" y="0" width="224" height="93" filterUnits="userSpaceOnUse" color-interpolation-filters="sRGB">
<feFlood flood-opacity="0" result="BackgroundImageFix"/>
<feColorMatrix in="SourceAlpha" type="matrix" values="0 0 0 0 0 0 0 0 0 0 0 0 0 0 0 0 0 0 127 0" result="hardAlpha"/>
<feOffset dy="2"/>
<feGaussianBlur stdDeviation="2.5"/>
<feComposite in2="hardAlpha" operator="out"/>
<feColorMatrix type="matrix" values="0 0 0 0 0.0799375 0 0 0 0 0.201927 0 0 0 0 0.544659 0 0 0 0.55 0"/>
<feBlend mode="normal" in2="BackgroundImageFix" result="effect1_dropShadow_3473_780"/>
<feBlend mode="normal" in="SourceGraphic" in2="effect1_dropShadow_3473_780" result="shape"/>
<feColorMatrix in="SourceAlpha" type="matrix" values="0 0 0 0 0 0 0 0 0 0 0 0 0 0 0 0 0 0 127 0" result="hardAlpha"/>
<feOffset dy="2"/>
<feGaussianBlur stdDeviation="0.5"/>
<feComposite in2="hardAlpha" operator="arithmetic" k2="-1" k3="1"/>
<feColorMatrix type="matrix" values="0 0 0 0 1 0 0 0 0 1 0 0 0 0 1 0 0 0 0.62 0"/>
<feBlend mode="normal" in2="shape" result="effect2_innerShadow_3473_780"/>
</filter>
<filter id="filter1_d_3473_780" x="412" y="18" width="169" height="54" filterUnits="userSpaceOnUse" color-interpolation-filters="sRGB">
<feFlood flood-opacity="0" result="BackgroundImageFix"/>
<feColorMatrix in="SourceAlpha" type="matrix" values="0 0 0 0 0 0 0 0 0 0 0 0 0 0 0 0 0 0 127 0" result="hardAlpha"/>
<feOffset dy="2"/>
<feComposite in2="hardAlpha" operator="out"/>
<feColorMatrix type="matrix" values="0 0 0 0 0 0 0 0 0 0 0 0 0 0 0 0 0 0 0.25 0"/>
<feBlend mode="normal" in2="BackgroundImageFix" result="effect1_dropShadow_3473_780"/>
<feBlend mode="normal" in="SourceGraphic" in2="effect1_dropShadow_3473_780" result="shape"/>
</filter>
<linearGradient id="paint0_linear_3473_780" x1="424" y1="90.8931" x2="452.795" y2="40.9939" gradientUnits="userSpaceOnUse">
<stop offset="0.600962" stop-color="#2C56CC"/>
<stop offset="0.9997" stop-color="#FF4E4E"/>
<stop offset="0.9998" stop-color="#2C56CC"/>
</linearGradient>
</defs>
</svg>
