<svg width="367" height="83" viewBox="0 0 367 83" fill="none" xmlns="http://www.w3.org/2000/svg">
<path fill-rule="evenodd" clip-rule="evenodd" d="M41.5 0C58.8444 0 67.5171 -0.000407219 73.583 4.43848C75.4881 5.83261 77.1674 7.51187 78.5615 9.41699C83.0004 15.4829 83 24.1556 83 41.5C83 58.8444 83.0004 67.5171 78.5615 73.583C77.1674 75.4881 75.4881 77.1674 73.583 78.5615C67.5171 83.0004 58.8444 83 41.5 83C24.1556 83 15.4829 83.0004 9.41699 78.5615C7.51187 77.1674 5.83261 75.4881 4.43848 73.583C-0.000407219 67.5171 0 58.8444 0 41.5C0 24.1556 -0.000407219 15.4829 4.43848 9.41699C5.83261 7.51187 7.51187 5.83261 9.41699 4.43848C15.4829 -0.000407219 24.1556 0 41.5 0ZM40.4502 13.6309C38.4698 13.2584 35.7062 13.2118 32.1602 13.4912V18.8701C34.6932 18.3113 36.5594 18.1708 37.7568 18.4502C39.0001 18.7296 39.7831 19.3819 40.1055 20.4062C40.4739 21.4308 40.5661 22.735 40.3818 24.3184C40.1976 25.8551 39.99 27.6246 39.7598 29.627C39.4374 31.8623 39.322 33.7721 39.4141 35.3555C39.5523 36.9387 40.1052 38.2194 41.0723 39.1973C42.0855 40.1752 43.6744 40.9204 45.8389 41.4326C43.6744 41.8983 42.0854 42.6198 41.0723 43.5977C40.1052 44.5755 39.5523 45.8563 39.4141 47.4395C39.2759 48.9762 39.3914 50.8625 39.7598 53.0977C39.99 55.1001 40.1976 56.8704 40.3818 58.4072C40.566 59.9902 40.4738 61.294 40.1055 62.3184C39.7831 63.3427 39.0001 63.9949 37.7568 64.2744C36.5594 64.6004 34.6932 64.4836 32.1602 63.9248V69.3037C35.7064 69.5831 38.4931 69.5366 40.5195 69.1641C42.5458 68.7915 43.9737 67.9769 44.8027 66.7197C45.6778 65.5089 46.1152 63.7623 46.1152 61.4805C46.1152 59.2452 45.8621 56.4041 45.3555 52.958C45.0792 50.7696 45.0792 49.0701 45.3555 47.8594C45.6318 46.6488 46.0461 45.7867 46.5986 45.2744C47.1972 44.7623 47.8193 44.4594 48.4639 44.3662C49.1547 44.2265 49.7541 44.1562 50.2607 44.1562V38.499C49.7541 38.499 49.1547 38.4515 48.4639 38.3584C47.8193 38.2186 47.1972 37.9167 46.5986 37.4512C46.046 36.9389 45.6318 36.077 45.3555 34.8662C45.0791 33.6554 45.0791 31.9553 45.3555 29.7666C45.816 26.3208 46.0468 23.4803 46.0469 21.2451C46.0469 19.0098 45.6085 17.286 44.7334 16.0752C43.9044 14.8181 42.4764 14.0034 40.4502 13.6309ZM18.2285 32.0752L19.25 38.7812L12.8701 35.7637L10.9619 41.1309L18.0176 42.2832L12.9844 47.0547L17.8662 50.3779L21.209 44.459L24.5527 50.3779L29.4297 47.0576L24.4502 42.2852L31.5146 41.1309L29.6064 35.7637L23.2266 38.7812L24.248 32.0752H18.2285ZM66.2061 33.4355C63.4527 33.4355 61.5712 34.1943 60.5615 35.7119C59.5519 37.1349 59.0469 38.8428 59.0469 40.835C59.0469 42.9219 59.506 44.7244 60.4238 46.2422C61.4335 47.7599 63.3609 48.5186 66.2061 48.5186C68.8675 48.5186 70.6573 47.8074 71.5752 46.3848C72.5848 44.867 73.0898 43.0168 73.0898 40.835C73.0898 38.8428 72.5848 37.1349 71.5752 35.7119C70.6573 34.1943 68.8676 33.4355 66.2061 33.4355Z" fill="#141B24"/>
<path d="M133.416 68.648C125.075 68.648 118.696 66.2253 114.28 61.38C109.864 56.4733 107.656 49.88 107.656 41.6C107.656 36.1413 108.607 31.4187 110.508 27.432C112.41 23.384 115.262 20.256 119.064 18.048C122.928 15.7787 127.712 14.644 133.416 14.644C141.819 14.644 148.198 17.0973 152.552 22.004C156.968 26.8493 159.176 33.3813 159.176 41.6C159.176 46.936 158.195 51.6587 156.232 55.768C154.27 59.816 151.387 62.9747 147.584 65.244C143.782 67.5133 139.059 68.648 133.416 68.648ZM133.324 59.632C137.066 59.632 140.163 58.8653 142.616 57.332C145.07 55.7373 146.91 53.5907 148.136 50.892C149.363 48.132 149.976 45.0347 149.976 41.6C149.976 38.104 149.363 35.0067 148.136 32.308C146.91 29.548 145.07 27.4013 142.616 25.868C140.163 24.2733 137.066 23.476 133.324 23.476C127.927 23.476 123.818 25.132 120.996 28.444C118.175 31.756 116.764 36.1413 116.764 41.6C116.764 44.9733 117.347 48.04 118.512 50.8C119.739 53.4987 121.579 55.6453 124.032 57.24C126.486 58.8347 129.583 59.632 133.324 59.632Z" fill="#141B24"/>
<path d="M166.288 67.452V23.384C166.288 20.072 167.024 17.68 168.496 16.208C170.03 14.736 172.299 14 175.304 14H185.24V21.268H175.672V67.452H166.288ZM161.136 36.172V29.548H184.964V36.172H161.136Z" fill="#141B24"/>
<path d="M191.829 67.452V23.384C191.829 20.072 192.565 17.68 194.037 16.208C195.57 14.736 197.84 14 200.845 14H210.781V21.268H201.213V67.452H191.829ZM186.677 36.172V29.548H210.505V36.172H186.677Z" fill="#141B24"/>
<path d="M228.453 68.28C227.165 68.28 225.754 68.096 224.221 67.728C222.688 67.4213 221.154 66.9307 219.621 66.256C218.088 65.52 216.677 64.6 215.389 63.496C214.162 62.392 213.181 61.104 212.445 59.632C211.709 58.16 211.341 56.4427 211.341 54.48H219.989C219.989 54.5413 220.02 54.94 220.081 55.676C220.204 56.412 220.51 57.24 221.001 58.16C221.492 59.0187 222.289 59.7853 223.393 60.46C224.497 61.1347 226.092 61.472 228.177 61.472C229.833 61.472 231.182 61.2573 232.225 60.828C233.268 60.3987 234.034 59.8773 234.525 59.264C235.077 58.5893 235.353 57.8533 235.353 57.056C235.353 55.7067 234.77 54.664 233.605 53.928C232.501 53.1307 231.06 52.4867 229.281 51.996C227.502 51.5053 225.601 51.0147 223.577 50.524C221.614 49.972 219.744 49.2667 217.965 48.408C216.248 47.5493 214.837 46.384 213.733 44.912C212.629 43.3787 212.077 41.416 212.077 39.024C212.077 35.4667 213.488 32.7987 216.309 31.02C219.13 29.2413 222.718 28.352 227.073 28.352C229.404 28.352 231.581 28.628 233.605 29.18C235.69 29.6707 237.53 30.4987 239.125 31.664C240.72 32.768 241.977 34.2093 242.897 35.988C243.878 37.7053 244.369 39.8213 244.369 42.336H235.721C235.782 40.9253 235.537 39.7907 234.985 38.932C234.494 38.012 233.82 37.3067 232.961 36.816C232.102 36.3253 231.182 35.988 230.201 35.804C229.22 35.62 228.269 35.528 227.349 35.528C225.141 35.528 223.454 35.9267 222.289 36.724C221.185 37.46 220.633 38.4413 220.633 39.668C220.633 41.0787 221.185 42.1827 222.289 42.98C223.454 43.716 224.926 44.3293 226.705 44.82C228.545 45.3107 230.477 45.832 232.501 46.384C234.525 46.8747 236.426 47.5493 238.205 48.408C239.984 49.2667 241.425 50.432 242.529 51.904C243.694 53.3147 244.277 55.216 244.277 57.608C244.277 60 243.602 61.9933 242.253 63.588C240.965 65.1213 239.125 66.2867 236.733 67.084C234.402 67.8813 231.642 68.28 228.453 68.28Z" fill="#141B24"/>
<path d="M265.349 68.28C260.994 68.28 257.437 67.36 254.677 65.52C251.978 63.6187 249.954 61.196 248.605 58.252C247.317 55.308 246.642 52.2413 246.581 49.052C246.519 45.2493 247.225 41.876 248.697 38.932C250.23 35.9267 252.377 33.596 255.137 31.94C257.958 30.2227 261.27 29.364 265.073 29.364C268.446 29.364 271.482 30.1 274.181 31.572C276.879 33.044 278.995 35.0987 280.529 37.736C282.123 40.3733 282.951 43.532 283.013 47.212C283.013 47.3347 283.013 47.7027 283.013 48.316C283.013 48.868 283.013 49.2973 283.013 49.604H255.505C255.505 53.1 256.363 55.7987 258.081 57.7C259.859 59.54 262.221 60.46 265.165 60.46C267.495 60.46 269.427 59.8773 270.961 58.712C272.555 57.5467 273.506 56.0133 273.813 54.112H282.921C282.675 56.7493 281.817 59.1413 280.345 61.288C278.873 63.4347 276.879 65.152 274.365 66.44C271.85 67.6667 268.845 68.28 265.349 68.28ZM255.781 45.372H273.629C273.567 44.9427 273.445 44.268 273.261 43.348C273.077 42.428 272.678 41.4773 272.065 40.496C271.451 39.5147 270.562 38.6867 269.397 38.012C268.231 37.3373 266.729 37 264.889 37C263.049 37 261.546 37.3067 260.381 37.92C259.215 38.5333 258.326 39.3 257.713 40.22C257.099 41.14 256.639 42.06 256.333 42.98C256.026 43.9 255.842 44.6973 255.781 45.372Z" fill="#141B24"/>
<path d="M287.421 67.36V29.548H295.425L296.989 37.736H297.173C297.234 37.552 297.449 37.0613 297.817 36.264C298.246 35.4053 298.921 34.4547 299.841 33.412C300.822 32.3693 302.11 31.48 303.705 30.744C305.361 29.9467 307.415 29.548 309.869 29.548C312.567 29.548 314.745 30.008 316.401 30.928C318.118 31.7867 319.467 32.952 320.449 34.424C321.43 35.8347 322.105 37.4293 322.473 39.208C322.902 40.9253 323.147 42.6427 323.209 44.36C323.331 46.0773 323.393 47.6413 323.393 49.052V67.36H314.193V48.96C314.193 46.936 313.978 45.096 313.549 43.44C313.181 41.784 312.414 40.4347 311.249 39.392C310.145 38.3493 308.397 37.828 306.005 37.828C303.551 37.828 301.681 38.4107 300.393 39.576C299.105 40.68 298.215 42.0907 297.725 43.808C297.234 45.5253 296.989 47.3653 296.989 49.328V67.36H287.421Z" fill="#141B24"/>
<path d="M343.616 68.28C339.875 68.28 336.839 67.4827 334.508 65.888C332.239 64.2933 330.583 62.0547 329.54 59.172C328.497 56.2893 327.976 52.9467 327.976 49.144C327.976 45.1573 328.497 41.7227 329.54 38.84C330.644 35.896 332.331 33.6267 334.6 32.032C336.931 30.376 339.936 29.548 343.616 29.548C346.008 29.548 348.001 29.9467 349.596 30.744C351.252 31.48 352.54 32.3693 353.46 33.412C354.441 34.4547 355.147 35.4053 355.576 36.264C356.005 37.1227 356.251 37.644 356.312 37.828H356.496V15.564H366.156V67.36H358.06L356.496 60.644H356.312C356.251 60.7667 355.975 61.2267 355.484 62.024C355.055 62.8213 354.319 63.7107 353.276 64.692C352.295 65.6733 351.007 66.532 349.412 67.268C347.817 67.9427 345.885 68.28 343.616 68.28ZM346.652 60.368C348.983 60.368 350.853 59.8773 352.264 58.896C353.736 57.9147 354.779 56.596 355.392 54.94C356.067 53.2227 356.404 51.26 356.404 49.052C356.404 46.9053 356.097 45.004 355.484 43.348C354.871 41.6307 353.859 40.312 352.448 39.392C351.099 38.4107 349.259 37.92 346.928 37.92C344.413 37.92 342.42 38.4413 340.948 39.484C339.537 40.5267 338.556 41.9067 338.004 43.624C337.452 45.3413 337.176 47.1507 337.176 49.052C337.176 50.9533 337.421 52.7933 337.912 54.572C338.464 56.2893 339.415 57.7 340.764 58.804C342.175 59.8467 344.137 60.368 346.652 60.368Z" fill="#141B24"/>
</svg>
