<svg width="615" height="83" viewBox="0 0 615 83" fill="none" xmlns="http://www.w3.org/2000/svg">
<path d="M131.416 68.648C123.075 68.648 116.696 66.2253 112.28 61.38C107.864 56.4733 105.656 49.88 105.656 41.6C105.656 36.1413 106.607 31.4187 108.508 27.432C110.41 23.384 113.262 20.256 117.064 18.048C120.928 15.7787 125.712 14.644 131.416 14.644C139.819 14.644 146.198 17.0973 150.552 22.004C154.968 26.8493 157.176 33.3813 157.176 41.6C157.176 46.936 156.195 51.6587 154.232 55.768C152.27 59.816 149.387 62.9747 145.584 65.244C141.782 67.5133 137.059 68.648 131.416 68.648ZM131.324 59.632C135.066 59.632 138.163 58.8653 140.616 57.332C143.07 55.7373 144.91 53.5907 146.136 50.892C147.363 48.132 147.976 45.0347 147.976 41.6C147.976 38.104 147.363 35.0067 146.136 32.308C144.91 29.548 143.07 27.4013 140.616 25.868C138.163 24.2733 135.066 23.476 131.324 23.476C125.927 23.476 121.818 25.132 118.996 28.444C116.175 31.756 114.764 36.1413 114.764 41.6C114.764 44.9733 115.347 48.04 116.512 50.8C117.739 53.4987 119.579 55.6453 122.032 57.24C124.486 58.8347 127.583 59.632 131.324 59.632Z" fill="#141B24"/>
<path d="M164.288 67.452V23.384C164.288 20.072 165.024 17.68 166.496 16.208C168.03 14.736 170.299 14 173.304 14H183.24V21.268H173.672V67.452H164.288ZM159.136 36.172V29.548H182.964V36.172H159.136Z" fill="#141B24"/>
<path d="M189.829 67.452V23.384C189.829 20.072 190.565 17.68 192.037 16.208C193.57 14.736 195.84 14 198.845 14H208.781V21.268H199.213V67.452H189.829ZM184.677 36.172V29.548H208.505V36.172H184.677Z" fill="#141B24"/>
<path d="M226.453 68.28C225.165 68.28 223.754 68.096 222.221 67.728C220.688 67.4213 219.154 66.9307 217.621 66.256C216.088 65.52 214.677 64.6 213.389 63.496C212.162 62.392 211.181 61.104 210.445 59.632C209.709 58.16 209.341 56.4427 209.341 54.48H217.989C217.989 54.5413 218.02 54.94 218.081 55.676C218.204 56.412 218.51 57.24 219.001 58.16C219.492 59.0187 220.289 59.7853 221.393 60.46C222.497 61.1347 224.092 61.472 226.177 61.472C227.833 61.472 229.182 61.2573 230.225 60.828C231.268 60.3987 232.034 59.8773 232.525 59.264C233.077 58.5893 233.353 57.8533 233.353 57.056C233.353 55.7067 232.77 54.664 231.605 53.928C230.501 53.1307 229.06 52.4867 227.281 51.996C225.502 51.5053 223.601 51.0147 221.577 50.524C219.614 49.972 217.744 49.2667 215.965 48.408C214.248 47.5493 212.837 46.384 211.733 44.912C210.629 43.3787 210.077 41.416 210.077 39.024C210.077 35.4667 211.488 32.7987 214.309 31.02C217.13 29.2413 220.718 28.352 225.073 28.352C227.404 28.352 229.581 28.628 231.605 29.18C233.69 29.6707 235.53 30.4987 237.125 31.664C238.72 32.768 239.977 34.2093 240.897 35.988C241.878 37.7053 242.369 39.8213 242.369 42.336H233.721C233.782 40.9253 233.537 39.7907 232.985 38.932C232.494 38.012 231.82 37.3067 230.961 36.816C230.102 36.3253 229.182 35.988 228.201 35.804C227.22 35.62 226.269 35.528 225.349 35.528C223.141 35.528 221.454 35.9267 220.289 36.724C219.185 37.46 218.633 38.4413 218.633 39.668C218.633 41.0787 219.185 42.1827 220.289 42.98C221.454 43.716 222.926 44.3293 224.705 44.82C226.545 45.3107 228.477 45.832 230.501 46.384C232.525 46.8747 234.426 47.5493 236.205 48.408C237.984 49.2667 239.425 50.432 240.529 51.904C241.694 53.3147 242.277 55.216 242.277 57.608C242.277 60 241.602 61.9933 240.253 63.588C238.965 65.1213 237.125 66.2867 234.733 67.084C232.402 67.8813 229.642 68.28 226.453 68.28Z" fill="#141B24"/>
<path d="M263.349 68.28C258.994 68.28 255.437 67.36 252.677 65.52C249.978 63.6187 247.954 61.196 246.605 58.252C245.317 55.308 244.642 52.2413 244.581 49.052C244.519 45.2493 245.225 41.876 246.697 38.932C248.23 35.9267 250.377 33.596 253.137 31.94C255.958 30.2227 259.27 29.364 263.073 29.364C266.446 29.364 269.482 30.1 272.181 31.572C274.879 33.044 276.995 35.0987 278.529 37.736C280.123 40.3733 280.951 43.532 281.013 47.212C281.013 47.3347 281.013 47.7027 281.013 48.316C281.013 48.868 281.013 49.2973 281.013 49.604H253.505C253.505 53.1 254.363 55.7987 256.081 57.7C257.859 59.54 260.221 60.46 263.165 60.46C265.495 60.46 267.427 59.8773 268.961 58.712C270.555 57.5467 271.506 56.0133 271.813 54.112H280.921C280.675 56.7493 279.817 59.1413 278.345 61.288C276.873 63.4347 274.879 65.152 272.365 66.44C269.85 67.6667 266.845 68.28 263.349 68.28ZM253.781 45.372H271.629C271.567 44.9427 271.445 44.268 271.261 43.348C271.077 42.428 270.678 41.4773 270.065 40.496C269.451 39.5147 268.562 38.6867 267.397 38.012C266.231 37.3373 264.729 37 262.889 37C261.049 37 259.546 37.3067 258.381 37.92C257.215 38.5333 256.326 39.3 255.713 40.22C255.099 41.14 254.639 42.06 254.333 42.98C254.026 43.9 253.842 44.6973 253.781 45.372Z" fill="#141B24"/>
<path d="M285.421 67.36V29.548H293.425L294.989 37.736H295.173C295.234 37.552 295.449 37.0613 295.817 36.264C296.246 35.4053 296.921 34.4547 297.841 33.412C298.822 32.3693 300.11 31.48 301.705 30.744C303.361 29.9467 305.415 29.548 307.869 29.548C310.567 29.548 312.745 30.008 314.401 30.928C316.118 31.7867 317.467 32.952 318.449 34.424C319.43 35.8347 320.105 37.4293 320.473 39.208C320.902 40.9253 321.147 42.6427 321.209 44.36C321.331 46.0773 321.393 47.6413 321.393 49.052V67.36H312.193V48.96C312.193 46.936 311.978 45.096 311.549 43.44C311.181 41.784 310.414 40.4347 309.249 39.392C308.145 38.3493 306.397 37.828 304.005 37.828C301.551 37.828 299.681 38.4107 298.393 39.576C297.105 40.68 296.215 42.0907 295.725 43.808C295.234 45.5253 294.989 47.3653 294.989 49.328V67.36H285.421Z" fill="#141B24"/>
<path d="M341.616 68.28C337.875 68.28 334.839 67.4827 332.508 65.888C330.239 64.2933 328.583 62.0547 327.54 59.172C326.497 56.2893 325.976 52.9467 325.976 49.144C325.976 45.1573 326.497 41.7227 327.54 38.84C328.644 35.896 330.331 33.6267 332.6 32.032C334.931 30.376 337.936 29.548 341.616 29.548C344.008 29.548 346.001 29.9467 347.596 30.744C349.252 31.48 350.54 32.3693 351.46 33.412C352.441 34.4547 353.147 35.4053 353.576 36.264C354.005 37.1227 354.251 37.644 354.312 37.828H354.496V15.564H364.156V67.36H356.06L354.496 60.644H354.312C354.251 60.7667 353.975 61.2267 353.484 62.024C353.055 62.8213 352.319 63.7107 351.276 64.692C350.295 65.6733 349.007 66.532 347.412 67.268C345.817 67.9427 343.885 68.28 341.616 68.28ZM344.652 60.368C346.983 60.368 348.853 59.8773 350.264 58.896C351.736 57.9147 352.779 56.596 353.392 54.94C354.067 53.2227 354.404 51.26 354.404 49.052C354.404 46.9053 354.097 45.004 353.484 43.348C352.871 41.6307 351.859 40.312 350.448 39.392C349.099 38.4107 347.259 37.92 344.928 37.92C342.413 37.92 340.42 38.4413 338.948 39.484C337.537 40.5267 336.556 41.9067 336.004 43.624C335.452 45.3413 335.176 47.1507 335.176 49.052C335.176 50.9533 335.421 52.7933 335.912 54.572C336.464 56.2893 337.415 57.7 338.764 58.804C340.175 59.8467 342.137 60.368 344.652 60.368Z" fill="#141B24"/>
<path fill-rule="evenodd" clip-rule="evenodd" d="M41.5 0C58.8444 0 67.5171 -0.000407219 73.583 4.43848C75.4881 5.83261 77.1674 7.51187 78.5615 9.41699C83.0004 15.4829 83 24.1556 83 41.5C83 58.8444 83.0004 67.5171 78.5615 73.583C77.1674 75.4881 75.4881 77.1674 73.583 78.5615C67.5171 83.0004 58.8444 83 41.5 83C24.1556 83 15.4829 83.0004 9.41699 78.5615C7.51187 77.1674 5.83261 75.4881 4.43848 73.583C-0.000407219 67.5171 0 58.8444 0 41.5C0 24.1556 -0.000407219 15.4829 4.43848 9.41699C5.83261 7.51187 7.51187 5.83261 9.41699 4.43848C15.4829 -0.000407219 24.1556 0 41.5 0ZM40.4502 13.6309C38.4698 13.2584 35.7062 13.2118 32.1602 13.4912V18.8701C34.6932 18.3113 36.5594 18.1708 37.7568 18.4502C39.0001 18.7296 39.7831 19.3819 40.1055 20.4062C40.4739 21.4308 40.5661 22.735 40.3818 24.3184C40.1976 25.8551 39.99 27.6246 39.7598 29.627C39.4374 31.8623 39.322 33.7721 39.4141 35.3555C39.5523 36.9387 40.1052 38.2194 41.0723 39.1973C42.0855 40.1752 43.6744 40.9204 45.8389 41.4326C43.6744 41.8983 42.0854 42.6198 41.0723 43.5977C40.1052 44.5755 39.5523 45.8563 39.4141 47.4395C39.2759 48.9762 39.3914 50.8625 39.7598 53.0977C39.99 55.1001 40.1976 56.8704 40.3818 58.4072C40.566 59.9902 40.4738 61.294 40.1055 62.3184C39.7831 63.3427 39.0001 63.9949 37.7568 64.2744C36.5594 64.6004 34.6932 64.4836 32.1602 63.9248V69.3037C35.7064 69.5831 38.4931 69.5366 40.5195 69.1641C42.5458 68.7915 43.9737 67.9769 44.8027 66.7197C45.6778 65.5089 46.1152 63.7623 46.1152 61.4805C46.1152 59.2452 45.8621 56.4041 45.3555 52.958C45.0792 50.7696 45.0792 49.0701 45.3555 47.8594C45.6318 46.6488 46.0461 45.7867 46.5986 45.2744C47.1972 44.7623 47.8193 44.4594 48.4639 44.3662C49.1547 44.2265 49.7541 44.1562 50.2607 44.1562V38.499C49.7541 38.499 49.1547 38.4515 48.4639 38.3584C47.8193 38.2186 47.1972 37.9167 46.5986 37.4512C46.046 36.9389 45.6318 36.077 45.3555 34.8662C45.0791 33.6554 45.0791 31.9553 45.3555 29.7666C45.816 26.3208 46.0468 23.4803 46.0469 21.2451C46.0469 19.0098 45.6085 17.286 44.7334 16.0752C43.9044 14.8181 42.4764 14.0034 40.4502 13.6309ZM18.2285 32.0752L19.25 38.7812L12.8701 35.7637L10.9619 41.1309L18.0176 42.2832L12.9844 47.0547L17.8662 50.3779L21.209 44.459L24.5527 50.3779L29.4297 47.0576L24.4502 42.2852L31.5146 41.1309L29.6064 35.7637L23.2266 38.7812L24.248 32.0752H18.2285ZM66.2061 33.4355C63.4527 33.4355 61.5712 34.1943 60.5615 35.7119C59.5519 37.1349 59.0469 38.8428 59.0469 40.835C59.0469 42.9219 59.506 44.7244 60.4238 46.2422C61.4335 47.7599 63.3609 48.5186 66.2061 48.5186C68.8675 48.5186 70.6573 47.8074 71.5752 46.3848C72.5848 44.867 73.0898 43.0168 73.0898 40.835C73.0898 38.8428 72.5848 37.1349 71.5752 35.7119C70.6573 34.1943 68.8676 33.4355 66.2061 33.4355Z" fill="#141B24"/>
<line x1="395" y1="4.37114e-08" x2="395" y2="83" stroke="black" stroke-width="2"/>
<path d="M425.7 68V14.8H442.876C447.031 14.8 450.425 15.5093 453.06 16.928C455.695 18.296 457.645 20.1453 458.912 22.476C460.179 24.8067 460.812 27.4413 460.812 30.38C460.812 33.2173 460.153 35.8267 458.836 38.208C457.569 40.5893 455.593 42.4893 452.908 43.908C450.223 45.3267 446.777 46.036 442.572 46.036H432.084V68H425.7ZM453.82 68L442.116 44.212H449.26L461.344 68H453.82ZM432.084 41.02H442.42C446.473 41.02 449.437 40.032 451.312 38.056C453.237 36.08 454.2 33.5467 454.2 30.456C454.2 27.3147 453.263 24.832 451.388 23.008C449.564 21.1333 446.549 20.196 442.344 20.196H432.084V41.02ZM478.83 68.912C475.739 68.912 473.155 68.38 471.078 67.316C469.001 66.2013 467.455 64.7573 466.442 62.984C465.429 61.16 464.922 59.184 464.922 57.056C464.922 54.472 465.581 52.2933 466.898 50.52C468.266 48.696 470.166 47.328 472.598 46.416C475.081 45.4533 477.994 44.972 481.338 44.972H491.446C491.446 42.5907 491.066 40.6147 490.306 39.044C489.597 37.4227 488.533 36.2067 487.114 35.396C485.746 34.5853 484.023 34.18 481.946 34.18C479.514 34.18 477.411 34.788 475.638 36.004C473.865 37.22 472.775 39.0187 472.37 41.4H465.834C466.138 38.664 467.05 36.384 468.57 34.56C470.141 32.6853 472.117 31.2667 474.498 30.304C476.879 29.2907 479.362 28.784 481.946 28.784C485.493 28.784 488.431 29.4427 490.762 30.76C493.143 32.0267 494.917 33.8253 496.082 36.156C497.247 38.436 497.83 41.1467 497.83 44.288V68H492.13L491.75 61.236C491.243 62.3 490.585 63.3133 489.774 64.276C489.014 65.188 488.102 65.9987 487.038 66.708C485.974 67.3667 484.758 67.8987 483.39 68.304C482.073 68.7093 480.553 68.912 478.83 68.912ZM479.818 63.516C481.591 63.516 483.187 63.1613 484.606 62.452C486.075 61.692 487.317 60.6787 488.33 59.412C489.343 58.0947 490.103 56.6507 490.61 55.08C491.167 53.5093 491.446 51.8627 491.446 50.14V49.912H481.87C479.387 49.912 477.386 50.216 475.866 50.824C474.346 51.3813 473.257 52.192 472.598 53.256C471.939 54.2693 471.61 55.4347 471.61 56.752C471.61 58.12 471.914 59.3107 472.522 60.324C473.181 61.3373 474.118 62.1227 475.334 62.68C476.601 63.2373 478.095 63.516 479.818 63.516ZM521.538 68.912C517.839 68.912 514.596 68.0507 511.81 66.328C509.023 64.5547 506.87 62.148 505.35 59.108C503.83 56.068 503.07 52.6227 503.07 48.772C503.07 44.9213 503.83 41.5013 505.35 38.512C506.87 35.472 509.023 33.0907 511.81 31.368C514.647 29.6453 517.915 28.784 521.614 28.784C524.755 28.784 527.491 29.4173 529.822 30.684C532.203 31.9507 534.027 33.724 535.294 36.004V13.28H541.678V68H535.902L535.37 61.692C534.559 62.9587 533.52 64.1493 532.254 65.264C530.987 66.328 529.467 67.2147 527.694 67.924C525.92 68.5827 523.868 68.912 521.538 68.912ZM522.298 63.364C524.831 63.364 527.06 62.756 528.986 61.54C530.911 60.324 532.406 58.652 533.47 56.524C534.534 54.3453 535.066 51.7867 535.066 48.848C535.066 45.96 534.534 43.4267 533.47 41.248C532.406 39.0693 530.911 37.372 528.986 36.156C527.06 34.94 524.831 34.332 522.298 34.332C519.815 34.332 517.611 34.94 515.686 36.156C513.76 37.372 512.266 39.0693 511.202 41.248C510.138 43.4267 509.606 45.96 509.606 48.848C509.606 51.7867 510.138 54.3453 511.202 56.524C512.266 58.652 513.76 60.324 515.686 61.54C517.611 62.756 519.815 63.364 522.298 63.364ZM561.738 68.912C558.648 68.912 556.064 68.38 553.986 67.316C551.909 66.2013 550.364 64.7573 549.35 62.984C548.337 61.16 547.83 59.184 547.83 57.056C547.83 54.472 548.489 52.2933 549.806 50.52C551.174 48.696 553.074 47.328 555.506 46.416C557.989 45.4533 560.902 44.972 564.246 44.972H574.354C574.354 42.5907 573.974 40.6147 573.214 39.044C572.505 37.4227 571.441 36.2067 570.022 35.396C568.654 34.5853 566.932 34.18 564.854 34.18C562.422 34.18 560.32 34.788 558.546 36.004C556.773 37.22 555.684 39.0187 555.278 41.4H548.742C549.046 38.664 549.958 36.384 551.478 34.56C553.049 32.6853 555.025 31.2667 557.406 30.304C559.788 29.2907 562.27 28.784 564.854 28.784C568.401 28.784 571.34 29.4427 573.67 30.76C576.052 32.0267 577.825 33.8253 578.99 36.156C580.156 38.436 580.738 41.1467 580.738 44.288V68H575.038L574.658 61.236C574.152 62.3 573.493 63.3133 572.682 64.276C571.922 65.188 571.01 65.9987 569.946 66.708C568.882 67.3667 567.666 67.8987 566.298 68.304C564.981 68.7093 563.461 68.912 561.738 68.912ZM562.726 63.516C564.5 63.516 566.096 63.1613 567.514 62.452C568.984 61.692 570.225 60.6787 571.238 59.412C572.252 58.0947 573.012 56.6507 573.518 55.08C574.076 53.5093 574.354 51.8627 574.354 50.14V49.912H564.778C562.296 49.912 560.294 50.216 558.774 50.824C557.254 51.3813 556.165 52.192 555.506 53.256C554.848 54.2693 554.518 55.4347 554.518 56.752C554.518 58.12 554.822 59.3107 555.43 60.324C556.089 61.3373 557.026 62.1227 558.242 62.68C559.509 63.2373 561.004 63.516 562.726 63.516ZM587.574 68V29.696H593.35L593.806 36.992C594.667 35.2693 595.757 33.8 597.074 32.584C598.442 31.368 600.063 30.4307 601.938 29.772C603.863 29.1133 606.042 28.784 608.474 28.784V35.472H606.118C604.497 35.472 602.951 35.7 601.482 36.156C600.013 36.5613 598.695 37.2453 597.53 38.208C596.415 39.1707 595.529 40.488 594.87 42.16C594.262 43.7813 593.958 45.808 593.958 48.24V68H587.574Z" fill="black"/>
</svg>
