<svg width="601" height="83" viewBox="0 0 601 83" fill="none" xmlns="http://www.w3.org/2000/svg">
<path d="M131.416 68.648C123.075 68.648 116.696 66.2253 112.28 61.38C107.864 56.4733 105.656 49.88 105.656 41.6C105.656 36.1413 106.607 31.4187 108.508 27.432C110.41 23.384 113.262 20.256 117.064 18.048C120.928 15.7787 125.712 14.644 131.416 14.644C139.819 14.644 146.198 17.0973 150.552 22.004C154.968 26.8493 157.176 33.3813 157.176 41.6C157.176 46.936 156.195 51.6587 154.232 55.768C152.27 59.816 149.387 62.9747 145.584 65.244C141.782 67.5133 137.059 68.648 131.416 68.648ZM131.324 59.632C135.066 59.632 138.163 58.8653 140.616 57.332C143.07 55.7373 144.91 53.5907 146.136 50.892C147.363 48.132 147.976 45.0347 147.976 41.6C147.976 38.104 147.363 35.0067 146.136 32.308C144.91 29.548 143.07 27.4013 140.616 25.868C138.163 24.2733 135.066 23.476 131.324 23.476C125.927 23.476 121.818 25.132 118.996 28.444C116.175 31.756 114.764 36.1413 114.764 41.6C114.764 44.9733 115.347 48.04 116.512 50.8C117.739 53.4987 119.579 55.6453 122.032 57.24C124.486 58.8347 127.583 59.632 131.324 59.632Z" fill="#141B24"/>
<path d="M164.288 67.452V23.384C164.288 20.072 165.024 17.68 166.496 16.208C168.03 14.736 170.299 14 173.304 14H183.24V21.268H173.672V67.452H164.288ZM159.136 36.172V29.548H182.964V36.172H159.136Z" fill="#141B24"/>
<path d="M189.829 67.452V23.384C189.829 20.072 190.565 17.68 192.037 16.208C193.57 14.736 195.84 14 198.845 14H208.781V21.268H199.213V67.452H189.829ZM184.677 36.172V29.548H208.505V36.172H184.677Z" fill="#141B24"/>
<path d="M226.453 68.28C225.165 68.28 223.754 68.096 222.221 67.728C220.688 67.4213 219.154 66.9307 217.621 66.256C216.088 65.52 214.677 64.6 213.389 63.496C212.162 62.392 211.181 61.104 210.445 59.632C209.709 58.16 209.341 56.4427 209.341 54.48H217.989C217.989 54.5413 218.02 54.94 218.081 55.676C218.204 56.412 218.51 57.24 219.001 58.16C219.492 59.0187 220.289 59.7853 221.393 60.46C222.497 61.1347 224.092 61.472 226.177 61.472C227.833 61.472 229.182 61.2573 230.225 60.828C231.268 60.3987 232.034 59.8773 232.525 59.264C233.077 58.5893 233.353 57.8533 233.353 57.056C233.353 55.7067 232.77 54.664 231.605 53.928C230.501 53.1307 229.06 52.4867 227.281 51.996C225.502 51.5053 223.601 51.0147 221.577 50.524C219.614 49.972 217.744 49.2667 215.965 48.408C214.248 47.5493 212.837 46.384 211.733 44.912C210.629 43.3787 210.077 41.416 210.077 39.024C210.077 35.4667 211.488 32.7987 214.309 31.02C217.13 29.2413 220.718 28.352 225.073 28.352C227.404 28.352 229.581 28.628 231.605 29.18C233.69 29.6707 235.53 30.4987 237.125 31.664C238.72 32.768 239.977 34.2093 240.897 35.988C241.878 37.7053 242.369 39.8213 242.369 42.336H233.721C233.782 40.9253 233.537 39.7907 232.985 38.932C232.494 38.012 231.82 37.3067 230.961 36.816C230.102 36.3253 229.182 35.988 228.201 35.804C227.22 35.62 226.269 35.528 225.349 35.528C223.141 35.528 221.454 35.9267 220.289 36.724C219.185 37.46 218.633 38.4413 218.633 39.668C218.633 41.0787 219.185 42.1827 220.289 42.98C221.454 43.716 222.926 44.3293 224.705 44.82C226.545 45.3107 228.477 45.832 230.501 46.384C232.525 46.8747 234.426 47.5493 236.205 48.408C237.984 49.2667 239.425 50.432 240.529 51.904C241.694 53.3147 242.277 55.216 242.277 57.608C242.277 60 241.602 61.9933 240.253 63.588C238.965 65.1213 237.125 66.2867 234.733 67.084C232.402 67.8813 229.642 68.28 226.453 68.28Z" fill="#141B24"/>
<path d="M263.349 68.28C258.994 68.28 255.437 67.36 252.677 65.52C249.978 63.6187 247.954 61.196 246.605 58.252C245.317 55.308 244.642 52.2413 244.581 49.052C244.519 45.2493 245.225 41.876 246.697 38.932C248.23 35.9267 250.377 33.596 253.137 31.94C255.958 30.2227 259.27 29.364 263.073 29.364C266.446 29.364 269.482 30.1 272.181 31.572C274.879 33.044 276.995 35.0987 278.529 37.736C280.123 40.3733 280.951 43.532 281.013 47.212C281.013 47.3347 281.013 47.7027 281.013 48.316C281.013 48.868 281.013 49.2973 281.013 49.604H253.505C253.505 53.1 254.363 55.7987 256.081 57.7C257.859 59.54 260.221 60.46 263.165 60.46C265.495 60.46 267.427 59.8773 268.961 58.712C270.555 57.5467 271.506 56.0133 271.813 54.112H280.921C280.675 56.7493 279.817 59.1413 278.345 61.288C276.873 63.4347 274.879 65.152 272.365 66.44C269.85 67.6667 266.845 68.28 263.349 68.28ZM253.781 45.372H271.629C271.567 44.9427 271.445 44.268 271.261 43.348C271.077 42.428 270.678 41.4773 270.065 40.496C269.451 39.5147 268.562 38.6867 267.397 38.012C266.231 37.3373 264.729 37 262.889 37C261.049 37 259.546 37.3067 258.381 37.92C257.215 38.5333 256.326 39.3 255.713 40.22C255.099 41.14 254.639 42.06 254.333 42.98C254.026 43.9 253.842 44.6973 253.781 45.372Z" fill="#141B24"/>
<path d="M285.421 67.36V29.548H293.425L294.989 37.736H295.173C295.234 37.552 295.449 37.0613 295.817 36.264C296.246 35.4053 296.921 34.4547 297.841 33.412C298.822 32.3693 300.11 31.48 301.705 30.744C303.361 29.9467 305.415 29.548 307.869 29.548C310.567 29.548 312.745 30.008 314.401 30.928C316.118 31.7867 317.467 32.952 318.449 34.424C319.43 35.8347 320.105 37.4293 320.473 39.208C320.902 40.9253 321.147 42.6427 321.209 44.36C321.331 46.0773 321.393 47.6413 321.393 49.052V67.36H312.193V48.96C312.193 46.936 311.978 45.096 311.549 43.44C311.181 41.784 310.414 40.4347 309.249 39.392C308.145 38.3493 306.397 37.828 304.005 37.828C301.551 37.828 299.681 38.4107 298.393 39.576C297.105 40.68 296.215 42.0907 295.725 43.808C295.234 45.5253 294.989 47.3653 294.989 49.328V67.36H285.421Z" fill="#141B24"/>
<path d="M341.616 68.28C337.875 68.28 334.839 67.4827 332.508 65.888C330.239 64.2933 328.583 62.0547 327.54 59.172C326.497 56.2893 325.976 52.9467 325.976 49.144C325.976 45.1573 326.497 41.7227 327.54 38.84C328.644 35.896 330.331 33.6267 332.6 32.032C334.931 30.376 337.936 29.548 341.616 29.548C344.008 29.548 346.001 29.9467 347.596 30.744C349.252 31.48 350.54 32.3693 351.46 33.412C352.441 34.4547 353.147 35.4053 353.576 36.264C354.005 37.1227 354.251 37.644 354.312 37.828H354.496V15.564H364.156V67.36H356.06L354.496 60.644H354.312C354.251 60.7667 353.975 61.2267 353.484 62.024C353.055 62.8213 352.319 63.7107 351.276 64.692C350.295 65.6733 349.007 66.532 347.412 67.268C345.817 67.9427 343.885 68.28 341.616 68.28ZM344.652 60.368C346.983 60.368 348.853 59.8773 350.264 58.896C351.736 57.9147 352.779 56.596 353.392 54.94C354.067 53.2227 354.404 51.26 354.404 49.052C354.404 46.9053 354.097 45.004 353.484 43.348C352.871 41.6307 351.859 40.312 350.448 39.392C349.099 38.4107 347.259 37.92 344.928 37.92C342.413 37.92 340.42 38.4413 338.948 39.484C337.537 40.5267 336.556 41.9067 336.004 43.624C335.452 45.3413 335.176 47.1507 335.176 49.052C335.176 50.9533 335.421 52.7933 335.912 54.572C336.464 56.2893 337.415 57.7 338.764 58.804C340.175 59.8467 342.137 60.368 344.652 60.368Z" fill="#141B24"/>
<path fill-rule="evenodd" clip-rule="evenodd" d="M41.5 0C58.8444 0 67.5171 -0.000407219 73.583 4.43848C75.4881 5.83261 77.1674 7.51187 78.5615 9.41699C83.0004 15.4829 83 24.1556 83 41.5C83 58.8444 83.0004 67.5171 78.5615 73.583C77.1674 75.4881 75.4881 77.1674 73.583 78.5615C67.5171 83.0004 58.8444 83 41.5 83C24.1556 83 15.4829 83.0004 9.41699 78.5615C7.51187 77.1674 5.83261 75.4881 4.43848 73.583C-0.000407219 67.5171 0 58.8444 0 41.5C0 24.1556 -0.000407219 15.4829 4.43848 9.41699C5.83261 7.51187 7.51187 5.83261 9.41699 4.43848C15.4829 -0.000407219 24.1556 0 41.5 0ZM40.4502 13.6309C38.4698 13.2584 35.7062 13.2118 32.1602 13.4912V18.8701C34.6932 18.3113 36.5594 18.1708 37.7568 18.4502C39.0001 18.7296 39.7831 19.3819 40.1055 20.4062C40.4739 21.4308 40.5661 22.735 40.3818 24.3184C40.1976 25.8551 39.99 27.6246 39.7598 29.627C39.4374 31.8623 39.322 33.7721 39.4141 35.3555C39.5523 36.9387 40.1052 38.2194 41.0723 39.1973C42.0855 40.1752 43.6744 40.9204 45.8389 41.4326C43.6744 41.8983 42.0854 42.6198 41.0723 43.5977C40.1052 44.5755 39.5523 45.8563 39.4141 47.4395C39.2759 48.9762 39.3914 50.8625 39.7598 53.0977C39.99 55.1001 40.1976 56.8704 40.3818 58.4072C40.566 59.9902 40.4738 61.294 40.1055 62.3184C39.7831 63.3427 39.0001 63.9949 37.7568 64.2744C36.5594 64.6004 34.6932 64.4836 32.1602 63.9248V69.3037C35.7064 69.5831 38.4931 69.5366 40.5195 69.1641C42.5458 68.7915 43.9737 67.9769 44.8027 66.7197C45.6778 65.5089 46.1152 63.7623 46.1152 61.4805C46.1152 59.2452 45.8621 56.4041 45.3555 52.958C45.0792 50.7696 45.0792 49.0701 45.3555 47.8594C45.6318 46.6488 46.0461 45.7867 46.5986 45.2744C47.1972 44.7623 47.8193 44.4594 48.4639 44.3662C49.1547 44.2265 49.7541 44.1562 50.2607 44.1562V38.499C49.7541 38.499 49.1547 38.4515 48.4639 38.3584C47.8193 38.2186 47.1972 37.9167 46.5986 37.4512C46.046 36.9389 45.6318 36.077 45.3555 34.8662C45.0791 33.6554 45.0791 31.9553 45.3555 29.7666C45.816 26.3208 46.0468 23.4803 46.0469 21.2451C46.0469 19.0098 45.6085 17.286 44.7334 16.0752C43.9044 14.8181 42.4764 14.0034 40.4502 13.6309ZM18.2285 32.0752L19.25 38.7812L12.8701 35.7637L10.9619 41.1309L18.0176 42.2832L12.9844 47.0547L17.8662 50.3779L21.209 44.459L24.5527 50.3779L29.4297 47.0576L24.4502 42.2852L31.5146 41.1309L29.6064 35.7637L23.2266 38.7812L24.248 32.0752H18.2285ZM66.2061 33.4355C63.4527 33.4355 61.5712 34.1943 60.5615 35.7119C59.5519 37.1349 59.0469 38.8428 59.0469 40.835C59.0469 42.9219 59.506 44.7244 60.4238 46.2422C61.4335 47.7599 63.3609 48.5186 66.2061 48.5186C68.8675 48.5186 70.6573 47.8074 71.5752 46.3848C72.5848 44.867 73.0898 43.0168 73.0898 40.835C73.0898 38.8428 72.5848 37.1349 71.5752 35.7119C70.6573 34.1943 68.8676 33.4355 66.2061 33.4355Z" fill="#141B24"/>
<rect x="387" width="214" height="83" rx="20" fill="url(#paint0_linear_3454_757)"/>
<path d="M412 66.1475V16.4208H428.15C432.057 16.4208 435.249 17.0838 437.726 18.4098C440.203 19.6885 442.037 21.4171 443.229 23.5956C444.42 25.7741 445.015 28.2368 445.015 30.9836C445.015 33.6357 444.396 36.0747 443.157 38.3005C441.966 40.5264 440.108 42.3024 437.583 43.6284C435.058 44.9545 431.819 45.6175 427.864 45.6175H418.003V66.1475H412ZM438.441 66.1475L427.436 43.9126H434.153L445.515 66.1475H438.441ZM418.003 40.929H427.721C431.533 40.929 434.32 40.0055 436.082 38.1585C437.893 36.3115 438.798 33.9435 438.798 31.0546C438.798 28.1184 437.917 25.7978 436.154 24.0929C434.439 22.3406 431.604 21.4645 427.65 21.4645H418.003V40.929Z" fill="white"/>
<path d="M461.242 67C458.336 67 455.907 66.5027 453.953 65.5082C452 64.4663 450.547 63.1166 449.594 61.459C448.641 59.7541 448.165 57.9071 448.165 55.918C448.165 53.5027 448.784 51.4663 450.023 49.8087C451.309 48.1038 453.096 46.8251 455.382 45.9727C457.717 45.0729 460.456 44.623 463.601 44.623H473.105C473.105 42.3971 472.748 40.5501 472.033 39.082C471.366 37.5665 470.366 36.4299 469.032 35.6721C467.745 34.9144 466.125 34.5355 464.172 34.5355C461.885 34.5355 459.908 35.1038 458.241 36.2404C456.574 37.377 455.549 39.0583 455.168 41.2842H449.022C449.308 38.7268 450.166 36.5956 451.595 34.8907C453.072 33.1384 454.93 31.8124 457.169 30.9126C459.408 29.9654 461.743 29.4918 464.172 29.4918C467.507 29.4918 470.27 30.1075 472.462 31.3388C474.701 32.5228 476.368 34.204 477.464 36.3825C478.56 38.5137 479.108 41.0474 479.108 43.9836V66.1475H473.748L473.391 59.8251C472.914 60.8197 472.295 61.7668 471.533 62.6667C470.818 63.5191 469.961 64.2769 468.96 64.9399C467.96 65.5556 466.816 66.0528 465.53 66.4317C464.291 66.8106 462.862 67 461.242 67ZM462.171 61.9563C463.839 61.9563 465.339 61.6248 466.673 60.9617C468.055 60.2514 469.222 59.3042 470.175 58.1202C471.128 56.8889 471.842 55.5392 472.319 54.071C472.843 52.6029 473.105 51.0638 473.105 49.4536V49.2404H464.101C461.766 49.2404 459.885 49.5246 458.455 50.0929C457.026 50.6138 456.002 51.3716 455.382 52.3661C454.763 53.3133 454.453 54.4025 454.453 55.6339C454.453 56.9126 454.739 58.0255 455.311 58.9727C455.93 59.9199 456.812 60.6539 457.955 61.1749C459.146 61.6958 460.552 61.9563 462.171 61.9563Z" fill="white"/>
<path d="M500.685 67C497.207 67 494.158 66.1949 491.538 64.5847C488.918 62.9271 486.893 60.6776 485.464 57.8361C484.034 54.9945 483.32 51.7741 483.32 48.1749C483.32 44.5756 484.034 41.3789 485.464 38.5847C486.893 35.7432 488.918 33.5173 491.538 31.9071C494.206 30.2969 497.279 29.4918 500.756 29.4918C503.71 29.4918 506.283 30.0838 508.474 31.2678C510.713 32.4517 512.428 34.1093 513.619 36.2404V15H519.622V66.1475H514.191L513.691 60.2514C512.929 61.4353 511.952 62.5483 510.761 63.5902C509.57 64.5847 508.141 65.4135 506.473 66.0765C504.806 66.6922 502.876 67 500.685 67ZM501.4 61.8142C503.782 61.8142 505.878 61.2459 507.688 60.1093C509.498 58.9727 510.904 57.4098 511.904 55.4208C512.905 53.3843 513.405 50.9927 513.405 48.2459C513.405 45.5464 512.905 43.1785 511.904 41.1421C510.904 39.1056 509.498 37.5191 507.688 36.3825C505.878 35.2459 503.782 34.6776 501.4 34.6776C499.065 34.6776 496.993 35.2459 495.182 36.3825C493.372 37.5191 491.967 39.1056 490.966 41.1421C489.966 43.1785 489.466 45.5464 489.466 48.2459C489.466 50.9927 489.966 53.3843 490.966 55.4208C491.967 57.4098 493.372 58.9727 495.182 60.1093C496.993 61.2459 499.065 61.8142 501.4 61.8142Z" fill="white"/>
<path d="M537.77 67C534.864 67 532.434 66.5027 530.481 65.5082C528.528 64.4663 527.075 63.1166 526.122 61.459C525.169 59.7541 524.693 57.9071 524.693 55.918C524.693 53.5027 525.312 51.4663 526.551 49.8087C527.837 48.1038 529.623 46.8251 531.91 45.9727C534.244 45.0729 536.984 44.623 540.128 44.623H549.632C549.632 42.3971 549.275 40.5501 548.561 39.082C547.894 37.5665 546.893 36.4299 545.559 35.6721C544.273 34.9144 542.653 34.5355 540.7 34.5355C538.413 34.5355 536.436 35.1038 534.769 36.2404C533.101 37.377 532.077 39.0583 531.696 41.2842H525.55C525.836 38.7268 526.693 36.5956 528.123 34.8907C529.6 33.1384 531.458 31.8124 533.697 30.9126C535.936 29.9654 538.27 29.4918 540.7 29.4918C544.035 29.4918 546.798 30.1075 548.989 31.3388C551.228 32.5228 552.896 34.204 553.992 36.3825C555.087 38.5137 555.635 41.0474 555.635 43.9836V66.1475H550.276L549.918 59.8251C549.442 60.8197 548.823 61.7668 548.06 62.6667C547.346 63.5191 546.488 64.2769 545.488 64.9399C544.487 65.5556 543.344 66.0528 542.058 66.4317C540.819 66.8106 539.39 67 537.77 67ZM538.699 61.9563C540.366 61.9563 541.867 61.6248 543.201 60.9617C544.583 60.2514 545.75 59.3042 546.703 58.1202C547.655 56.8889 548.37 55.5392 548.846 54.071C549.37 52.6029 549.632 51.0638 549.632 49.4536V49.2404H540.628C538.294 49.2404 536.412 49.5246 534.983 50.0929C533.554 50.6138 532.529 51.3716 531.91 52.3661C531.291 53.3133 530.981 54.4025 530.981 55.6339C530.981 56.9126 531.267 58.0255 531.839 58.9727C532.458 59.9199 533.339 60.6539 534.483 61.1749C535.674 61.6958 537.079 61.9563 538.699 61.9563Z" fill="white"/>
<path d="M561.348 66.1475V30.3443H566.779L567.208 37.1639C568.018 35.5537 569.042 34.1803 570.281 33.0437C571.567 31.9071 573.092 31.031 574.854 30.4153C576.665 29.7996 578.713 29.4918 581 29.4918V35.7432H578.785C577.26 35.7432 575.807 35.9563 574.426 36.3825C573.044 36.7614 571.805 37.4007 570.71 38.3005C569.661 39.2004 568.828 40.4317 568.208 41.9945C567.637 43.51 567.351 45.4044 567.351 47.6776V66.1475H561.348Z" fill="white"/>
<defs>
<linearGradient id="paint0_linear_3454_757" x1="424" y1="87.8931" x2="543" y2="87.8678" gradientUnits="userSpaceOnUse">
<stop offset="0.600962" stop-color="#2C56CC"/>
<stop offset="0.9997" stop-color="#FF4E4E"/>
<stop offset="0.9998" stop-color="#2C56CC"/>
</linearGradient>
</defs>
</svg>
